<?xml version="1.0" encoding="UTF-8"?>
<svg id="_圖層_2" data-name=" 圖層 2" xmlns="http://www.w3.org/2000/svg" version="1.1" viewBox="0 0 116 116">
  <defs>
    <style>
      .cls-1 {
        fill: #efefef;
        stroke-width: 0px;
      }
    </style>
  </defs>
  <g id="_臺icon" data-name=" 臺icon">
    <path class="cls-1" d="M68.4,23.3c.8,0,1.7,0,2.5.3,1,.2,2,.5,3,.7,4.4,1.2,8.2,3.4,11.7,6.7,1.5-1.6,3-3.2,4.7-5v14.8h-14.7c1.8-1.7,3.4-3.2,5.2-4.7-2.3-2.3-4.8-3.8-7.5-4.6-7-2.2-13.8-1.1-20.3,1.9-5.5,2.5-10.2,6.2-14.1,10.8-.5.6-1,1.2-1.4,1.7-1.7-1.7-3.3-3.3-5.2-5.2,2.2-2.1,4.3-4.5,6.8-6.7,6.5-5.6,13.9-9.2,22.5-10.4h0c.7-.1,1.5-.2,2.2-.2h4.8Z"/>
    <path class="cls-1" d="M23.1,62.3c.1-.4.3-.9.4-1.2,2.1,2,4.3,3.9,6.3,6.1.6.7.6,2.1.8,3.1-.1,0-.2.1-.4.2-.7-.7-1.4-1.5-2.2-2.2-1.6-1.6-3.3-3.1-4.9-4.7v-1.5h0Z"/>
    <path class="cls-1" d="M78.9,70.3c1.6,1.7,3.1,3.4,4.8,5.1-2.6,3.2-5.7,6.3-9.2,8.9-6.7,4.9-14.2,8-22.5,8.4-7.7.4-14.7-1.6-20.5-6.8-.2-.2-.5-.4-.9-.8-1.5,1.6-2.9,3.1-4.3,4.7-.1,0-.2-.2-.3-.2v-14.4h14.3c-1.6,1.5-3.2,3.1-4.9,4.7,2.9,3,6.1,4.6,9.7,5.4,6.7,1.5,13.1,0,19.2-2.9,5.3-2.5,9.7-6.2,13.5-10.6.4-.4.8-.9,1.3-1.5h0Z"/>
    <path class="cls-1" d="M34,50.9c-1.8-1.7-3.5-3.4-5.2-5.1.8-1.2,1.6-2.4,2.3-3.5,1.7,1.5,3.3,3,4.9,4.5.1.1.1.6,0,.8-.7,1.2-1.4,2.3-2,3.3Z"/>
    <path class="cls-1" d="M82.2,65.1c1.6,1.6,3,3,4.4,4.5.2.3.3,1,.1,1.3-.6,1.1-1.3,2-2,2.9-1.6-1.6-3.2-3.2-4.9-4.9.7-1.1,1.4-2.4,2.3-3.8h0Z"/>
    <path class="cls-1" d="M31.6,56.7c-1.8-1.8-3.3-3.3-4.9-5-.2-.2-.3-.8-.2-1.1.4-.9.8-1.8,1.3-2.8,1.7,1.6,3.3,3.2,4.9,4.8.2.2.2.6.2.9-.3,1-.8,2-1.2,3.2h0Z"/>
    <path class="cls-1" d="M88.2,68.4c-1.6-1.6-3.1-3.1-4.6-4.7-.2-.2-.3-.8-.2-1.1.3-1,.8-2,1.2-3.2,1.7,1.8,3.3,3.5,4.9,5.3.2.2.1.7,0,1-.3.8-.8,1.7-1.3,2.7h0Z"/>
    <path class="cls-1" d="M90.7,61.9c-1.6-1.7-3.3-3.2-4.7-5.1-.5-.7-.2-2.1-.3-3.2.1,0,.3,0,.4,0,1.8,1.8,3.7,3.4,5.3,5.3.4.5,0,1.9-.2,2.9-.2,0-.3,0-.5,0h0Z"/>
    <path class="cls-1" d="M25.3,54.1c1.7,1.8,3.6,3.4,5.1,5.3.5.7,0,2,0,3.1-.1,0-.2,0-.4,0-1.9-1.8-3.8-3.6-5.5-5.6-.4-.5.2-1.8.3-2.7.2,0,.3-.1.5-.2Z"/>
    <path class="cls-1" d="M92.4,55c-2-2-4-3.9-5.8-6-.6-.7-.6-1.9-.6-3,2.3,2.2,4.6,4.4,6.8,6.7.4.4,0,1.5,0,2.2-.1,0-.2.1-.4.2h0Z"/>
    <path class="cls-1" d="M42.2,42.9h30.6v2.8h-30.6s0-2.8,0-2.8ZM42.5,56.2h30v5.2h-4.2v-2.5h-21.7v2.5h-4v-5.2h0ZM42.5,70h30v3h-30s0-3,0-3ZM45,46.6h24.9v2.6h-24.9s0-2.6,0-2.6ZM45.9,66.5h23.6v2.6h-23.6s0-2.6,0-2.6ZM46.2,59.8h22.2v2.4h-22.2s0-2.4,0-2.4ZM46.2,50.1h22.8v5.3h-22.8v-5.3ZM47.6,66.2c0-.3-.2-.7-.4-1.3-.2-.6-.3-1.1-.5-1.5.6,0,1.2-.2,1.8-.4.2,0,.6-.2,1.1-.5s1.1-.5,1.7-.8,1.2-.7,1.7-1.1l3,1c-1.1.7-2.2,1.3-3.3,1.9s-2.2.9-3.2,1.2h0c-.6.3-1.1.6-1.5.8-.3.2-.5.4-.5.7h0ZM47.6,66.2v-2l1.7-.9,16.3-.2c0,.3.1.7.2,1.2,0,.4.2.8.3,1.1-3.2,0-5.8.1-7.9.2-2.1,0-3.8,0-5.1.1-1.3,0-2.3,0-3,.1s-1.3,0-1.6.2c-.4,0-.7.1-.9.2h0ZM50.4,52.2v1h14.1v-1h-14.1ZM55,41.3h4.6v7h-4.6v-7ZM55,64.4h4.6v7.1h-4.6v-7.1ZM60.4,62.3l2.6-1.9c.8.4,1.6.8,2.5,1.3s1.7,1,2.4,1.5c.8.5,1.4,1,1.9,1.4l-2.7,2.1c-.5-.5-1.1-1-1.9-1.5-.8-.6-1.6-1.1-2.4-1.6-.8-.5-1.7-1-2.5-1.4h0Z"/>
  </g>
</svg>