<?xml version="1.0" encoding="UTF-8"?><svg id="_圖層_2" xmlns="http://www.w3.org/2000/svg" viewBox="0 0 116 116"><defs><style>.cls-1{fill:#efefef;stroke-width:0px;}</style></defs><g id="_臺icon"><path class="cls-1" d="M68.42,23.28c.83,0,1.65.09,2.46.28,1,.23,2.01.46,3,.72,4.39,1.16,8.22,3.37,11.66,6.66,1.53-1.61,3.01-3.17,4.72-4.96v14.81h-14.71c1.85-1.7,3.45-3.15,5.17-4.73-2.33-2.33-4.75-3.77-7.49-4.65-7.03-2.25-13.8-1.1-20.34,1.87-5.51,2.5-10.18,6.15-14.09,10.77-.5.59-.99,1.18-1.44,1.71-1.68-1.7-3.31-3.34-5.18-5.23,2.16-2.14,4.33-4.54,6.76-6.66,6.47-5.64,13.94-9.2,22.49-10.37,0,0,0,0,0,0,.74-.11,1.48-.23,2.23-.23h4.74Z"/><path class="cls-1" d="M23.14,62.26c.13-.44.27-.88.35-1.15,2.08,1.99,4.32,3.92,6.28,6.1.64.71.57,2.06.82,3.11-.13.07-.25.14-.38.21-.73-.72-1.44-1.46-2.18-2.17-1.63-1.56-3.27-3.11-4.9-4.66,0-.48,0-.97,0-1.45Z"/><path class="cls-1" d="M78.91,70.26c1.62,1.74,3.14,3.37,4.77,5.12-2.59,3.24-5.68,6.27-9.2,8.86-6.71,4.93-14.15,7.98-22.52,8.42-7.7.4-14.66-1.61-20.52-6.83-.25-.22-.5-.44-.88-.77-1.47,1.57-2.9,3.12-4.34,4.66-.11-.08-.23-.15-.34-.23v-14.37h14.33c-1.56,1.52-3.17,3.08-4.87,4.72,2.92,2.97,6.08,4.6,9.69,5.39,6.74,1.48,13.08.07,19.16-2.86,5.27-2.54,9.72-6.15,13.46-10.64.37-.44.75-.88,1.26-1.49Z"/><path class="cls-1" d="M34.01,50.94c-1.77-1.73-3.45-3.37-5.21-5.1.79-1.2,1.6-2.44,2.31-3.51,1.67,1.53,3.3,3,4.89,4.51.14.13.14.56.04.75-.67,1.16-1.38,2.29-2.03,3.35Z"/><path class="cls-1" d="M82.25,65.06c1.57,1.57,3.04,2.98,4.41,4.46.24.26.31.97.13,1.29-.59,1.05-1.33,2.01-1.96,2.93-1.61-1.62-3.19-3.2-4.86-4.88.66-1.11,1.43-2.38,2.29-3.81Z"/><path class="cls-1" d="M31.58,56.65c-1.76-1.78-3.34-3.34-4.87-4.95-.23-.24-.33-.8-.22-1.11.35-.94.84-1.83,1.3-2.8,1.68,1.64,3.3,3.2,4.87,4.8.18.18.25.62.16.88-.34.99-.76,1.96-1.25,3.19Z"/><path class="cls-1" d="M88.21,68.45c-1.63-1.64-3.14-3.12-4.6-4.66-.23-.24-.35-.78-.25-1.1.31-1.01.75-1.97,1.24-3.18,1.7,1.83,3.31,3.53,4.86,5.27.17.2.14.71.02,1.01-.34.85-.77,1.65-1.27,2.67Z"/><path class="cls-1" d="M90.73,61.94c-1.59-1.68-3.33-3.25-4.69-5.11-.53-.73-.21-2.09-.28-3.16.13-.01.26-.03.38-.04,1.78,1.76,3.69,3.41,5.26,5.33.45.55-.09,1.9-.18,2.89-.16.03-.32.06-.49.08Z"/><path class="cls-1" d="M25.28,54.13c1.71,1.75,3.56,3.39,5.05,5.31.5.65.08,2.02.08,3.06-.12.03-.24.07-.37.1-1.86-1.84-3.83-3.6-5.5-5.59-.4-.48.16-1.77.27-2.69.16-.06.31-.12.47-.19Z"/><path class="cls-1" d="M92.37,54.98c-1.97-2-4.02-3.92-5.84-6.04-.6-.71-.59-1.94-.61-3.02,2.27,2.22,4.6,4.39,6.76,6.7.37.4.05,1.45.05,2.19-.12.05-.24.11-.36.16Z"/><path class="cls-1" d="M42.21,42.93h30.59v2.78h-30.59v-2.78ZM42.49,56.2h29.98v5.25h-4.25v-2.47h-21.67v2.47h-4.05v-5.25ZM42.49,70.03h30.01v3.02h-30.01v-3.02ZM45.02,46.64h24.9v2.57h-24.9v-2.57ZM45.88,66.49h23.63v2.61h-23.63v-2.61ZM46.16,59.84h22.19v2.37h-22.19v-2.37ZM46.19,50.07h22.77v5.28h-22.77v-5.28ZM47.56,66.22c-.09-.3-.23-.74-.41-1.34-.18-.59-.35-1.09-.51-1.48.57-.05,1.18-.18,1.82-.41.23-.09.61-.24,1.13-.45s1.09-.47,1.7-.79,1.18-.67,1.73-1.06l3.05,1c-1.08.71-2.18,1.33-3.31,1.87-1.13.54-2.21.93-3.24,1.18v.03c-.64.3-1.13.55-1.46.77-.33.22-.5.44-.5.67ZM47.56,66.22v-1.96l1.72-.93,16.33-.21c.05.34.11.74.19,1.18s.16.82.26,1.11c-3.15.07-5.78.13-7.87.19-2.09.06-3.79.1-5.09.14-1.3.03-2.32.07-3.04.12-.72.05-1.26.1-1.61.16-.36.06-.65.12-.88.19ZM50.38,52.23v.96h14.13v-.96h-14.13ZM55.01,41.29h4.6v7h-4.6v-7ZM55.01,64.44h4.6v7.06h-4.6v-7.06ZM60.39,62.28l2.61-1.89c.8.37,1.62.8,2.47,1.3.85.5,1.66,1.02,2.44,1.54.78.53,1.42,1.01,1.92,1.44l-2.67,2.13c-.48-.46-1.1-.96-1.87-1.51-.77-.55-1.57-1.09-2.42-1.63-.85-.54-1.67-1-2.47-1.39Z"/></g></svg>